<svg viewBox="0 0 14 11" fill="none" xmlns="http://www.w3.org/2000/svg">
  <g clip-path="url(#clip0_3_17296)">
    <path
      d="M1.36349 10.16H3.42531V5.15276L0.479858 2.94366V9.27639C0.479858 9.76534 0.876022 10.16 1.36349 10.16Z"
      fill="white"
    />
    <path
      d="M10.4937 10.1599H12.5555C13.0444 10.1599 13.4391 9.76374 13.4391 9.27627V2.94354L10.4937 5.15263"
      fill="white"
    />
    <path
      d="M10.4937 1.32322V5.15231L13.4391 2.94322V1.76503C13.4391 0.67227 12.1917 0.0493068 11.3184 0.70467"
      fill="white"
    />
    <path
      d="M3.42517 5.15264V1.32355L6.95972 3.97446L10.4943 1.32355V5.15264L6.95972 7.80355"
      fill="white"
    />
    <path
      d="M0.479858 1.76528V2.94346L3.42531 5.15255V1.32346L2.60059 0.704914C1.72579 0.0495509 0.479858 0.672515 0.479858 1.76528Z"
      fill="white"
    />
  </g>
  <defs>
    <clipPath id="clip0_3_17296">
      <rect width="12.96" height="9.72" fill="white" transform="translate(0.479858 0.439758)" />
    </clipPath>
  </defs>
</svg>
